<?xml version="1.0" standalone="no"?>
<!DOCTYPE svg PUBLIC "-//W3C//DTD SVG 20010904//EN"
 "http://www.w3.org/TR/2001/REC-SVG-20010904/DTD/svg10.dtd">
<svg version="1.0" xmlns="http://www.w3.org/2000/svg"
 width="180.000000pt" height="180.000000pt" viewBox="0 0 180.000000 180.000000"
 preserveAspectRatio="xMidYMid meet">

<g transform="translate(0.000000,180.000000) scale(0.100000,-0.100000)"
fill="#000000" stroke="none">
<path d="M329 1791 c23 -6 22 -8 -29 -51 l-54 -45 33 -5 32 -5 -36 -42 -37
-43 31 0 30 0 -28 -63 c-44 -98 -46 -107 -22 -107 24 0 24 0 10 -37 -7 -19 -7
-39 0 -63 19 -69 41 -157 41 -169 0 -9 -5 -9 -20 -1 -12 6 -33 10 -48 8 -24
-3 -28 -8 -36 -57 -11 -74 6 -197 35 -257 38 -76 98 -136 138 -138 33 -1 35
-4 57 -71 19 -59 31 -77 76 -117 l53 -47 -30 -2 c-16 0 -50 0 -75 0 -88 2
-167 -69 -195 -174 -20 -79 -21 -305 -1 -305 10 0 14 32 19 145 4 131 8 151
32 200 14 30 30 55 35 55 14 0 67 -194 90 -332 7 -38 16 -68 21 -68 21 0 0
119 -53 308 -37 134 -38 132 73 132 l75 0 31 -44 c17 -24 66 -70 108 -102 l77
-58 -7 -118 -7 -118 146 0 147 0 -6 98 c-4 53 -8 103 -11 110 -2 8 46 63 108
123 l113 109 67 0 c77 0 121 -15 113 -39 -44 -143 -95 -349 -95 -390 0 -6 6
-11 14 -11 9 0 15 18 20 54 7 59 71 325 81 335 11 10 43 -42 54 -86 6 -23 11
-101 11 -172 0 -124 1 -131 20 -131 19 0 20 7 20 109 0 177 -30 277 -98 329
-31 24 -46 27 -126 30 -50 2 -95 7 -99 12 -5 4 17 27 47 51 56 43 62 55 86
147 9 36 14 42 38 42 38 0 66 22 110 88 59 88 67 115 67 233 0 114 -10 143
-49 137 -32 -5 -44 19 -35 66 5 23 8 67 9 98 0 41 4 59 15 66 14 7 14 13 -3
53 -17 39 -18 48 -6 64 12 17 11 22 -13 47 l-27 29 22 6 c22 5 22 7 6 24 -16
18 -16 19 2 19 14 0 11 6 -16 28 l-34 29 34 7 35 6 -45 30 c-25 17 -44 35 -43
40 2 7 -198 10 -560 9 -309 -1 -551 -4 -538 -8z m929 -246 c71 -78 109 -186
88 -252 -5 -17 -1 -26 19 -39 24 -15 24 -18 10 -34 -12 -13 -13 -20 -5 -25 7
-4 10 -31 9 -68 -3 -57 -1 -62 22 -68 13 -4 18 -7 11 -8 -8 -1 -10 -9 -6 -26
3 -14 2 -25 -4 -25 -6 0 -8 -8 -5 -19 3 -11 -2 -21 -11 -24 -9 -4 -16 -2 -16
3 0 6 -5 10 -11 10 -8 0 -8 -5 1 -15 7 -8 16 -12 21 -9 5 3 9 -2 9 -10 0 -8
-5 -18 -10 -21 -6 -4 -8 -15 -5 -26 7 -22 -13 -26 -21 -4 -4 8 -11 15 -17 15
-6 0 -1 -10 11 -23 26 -27 31 -57 7 -37 -9 8 -15 9 -15 2 0 -6 5 -14 10 -17
17 -11 12 -38 -6 -31 -13 5 -14 3 -7 -6 6 -7 9 -24 8 -38 -2 -14 -4 -31 -4
-38 -1 -7 -5 -11 -9 -8 -4 2 -9 -14 -9 -37 -1 -23 -7 -43 -13 -45 -5 -2 -10
-9 -10 -16 0 -7 -11 -23 -25 -36 -14 -13 -25 -21 -25 -17 0 3 -14 -7 -30 -23
-31 -30 -45 -36 -53 -22 -2 4 -2 2 -1 -5 2 -7 -1 -15 -6 -18 -6 -4 -10 0 -11
7 0 7 -4 5 -8 -5 -4 -10 -10 -17 -14 -15 -4 2 -14 -7 -23 -20 -15 -22 -17 -22
-29 -5 -13 17 -14 16 -8 -4 3 -14 1 -23 -6 -23 -6 0 -12 8 -12 18 -1 9 -4 4
-8 -12 -7 -34 -27 -45 -34 -19 -4 14 -5 13 -6 -4 -1 -27 -16 -30 -30 -5 -10
16 -10 15 -12 -3 0 -16 -3 -14 -14 10 l-14 30 -1 -26 c0 -23 -4 -26 -40 -27
-35 -2 -40 1 -41 21 -1 21 -1 21 -9 -3 -7 -21 -8 -22 -9 -5 -2 19 -2 19 -15 2
-12 -15 -18 -17 -35 -7 -12 6 -26 8 -31 5 -6 -3 -10 4 -11 17 -1 23 -1 23 -9
-2 -6 -22 -8 -23 -15 -7 -4 9 -12 17 -19 17 -6 0 -24 15 -40 33 -16 17 -31 31
-34 29 -4 -2 -9 5 -13 15 -4 10 -8 12 -8 5 -1 -9 -13 -4 -33 14 -18 15 -32 31
-30 36 1 5 -2 7 -6 4 -13 -8 -56 33 -69 65 -9 20 -8 30 0 39 9 10 9 11 0 6
-14 -8 -27 10 -13 19 14 9 12 25 -2 22 -8 -1 -12 8 -11 26 1 15 -2 25 -8 22
-15 -10 -10 7 8 29 17 20 17 20 0 7 -23 -18 -32 -8 -32 39 0 21 -3 36 -7 34
-13 -8 -9 11 5 25 10 11 9 13 -6 8 -15 -6 -18 -2 -15 21 2 15 8 27 15 27 6 0
15 3 18 7 4 4 -4 5 -19 2 -29 -5 -35 12 -13 35 10 11 9 13 -5 8 -10 -4 -18 -3
-18 2 0 5 -3 22 -6 38 -5 24 -2 31 13 35 16 4 19 12 15 36 -2 17 3 45 11 61
15 29 14 32 -4 42 -19 10 -19 11 2 49 18 32 20 42 9 54 -25 31 10 130 73 208
49 61 67 69 118 54 24 -8 84 -19 134 -25 49 -7 93 -18 97 -24 4 -7 8 -8 8 -3
0 5 6 4 13 -2 9 -8 20 -7 39 2 14 8 54 17 88 21 34 4 98 17 143 30 45 12 85
23 88 24 4 0 30 -24 57 -54z m287 -449 c9 -73 -10 -191 -40 -243 -40 -68 -75
-103 -101 -103 -21 0 -24 3 -18 28 9 36 18 45 48 45 14 0 31 6 38 15 18 21 19
72 2 104 -18 35 -18 44 1 28 8 -7 15 -21 15 -31 0 -10 5 -21 10 -24 22 -13 9
47 -15 71 -14 14 -25 29 -25 34 0 14 24 12 38 -2 6 -6 14 -9 17 -6 4 3 -4 16
-16 27 l-23 21 22 22 22 22 0 -37 c0 -20 5 -37 10 -37 6 0 10 16 10 35 0 51
-25 57 -62 17 -23 -27 -28 -29 -28 -13 0 18 64 81 82 81 3 0 10 -24 13 -54z
m-1261 22 c13 -13 27 -34 31 -48 6 -23 4 -22 -22 9 -38 45 -63 38 -63 -18 0
-40 23 -62 44 -41 13 13 36 13 36 -1 0 -6 -11 -20 -25 -31 -25 -20 -36 -78
-15 -78 6 0 10 11 10 24 0 13 7 29 15 36 18 15 19 11 2 -31 -25 -62 -8 -119
37 -119 30 0 43 -11 51 -43 6 -24 4 -27 -18 -27 -28 0 -61 34 -103 106 -30 51
-50 171 -39 240 7 50 21 55 59 22z m-5 -46 c7 -14 5 -23 -10 -35 -18 -16 -19
-16 -19 18 0 38 14 46 29 17z m1174 -195 c-13 -27 -39 -45 -49 -35 -2 3 3 40
12 82 l17 77 17 -48 c15 -42 15 -51 3 -76z m-1089 -25 c7 -22 6 -23 -13 -13
-12 7 -28 22 -36 35 -14 22 -14 28 2 65 l18 42 11 -53 c6 -29 14 -64 18 -76z
m221 -392 c3 -5 1 -10 -4 -10 -6 0 -11 5 -11 10 0 6 2 10 4 10 3 0 8 -4 11
-10z m619 -11 c-3 -5 -10 -7 -15 -3 -5 3 -7 10 -3 15 3 5 10 7 15 3 5 -3 7
-10 3 -15z m-26 -35 c-4 -23 -18 -24 -32 -1 -8 14 -8 20 4 27 18 11 33 -2 28
-26z m-552 15 c3 -6 1 -16 -5 -22 -9 -9 -14 -8 -21 3 -9 15 -4 30 10 30 5 0
12 -5 16 -11z m504 -71 c-23 -19 -24 -19 -36 4 -18 31 -17 33 9 45 18 8 25 6
36 -10 13 -18 12 -22 -9 -39z m-459 36 c19 -17 15 -44 -6 -44 -19 0 -38 28
-31 45 7 19 15 19 37 -1z m409 -40 c13 -33 13 -32 -10 -44 -18 -10 -20 -8 -20
30 0 45 16 53 30 14z m-360 -20 c0 -26 -17 -33 -26 -9 -8 20 3 48 16 40 5 -3
10 -17 10 -31z m297 -20 c-11 -12 -137 -25 -184 -20 -68 8 -83 14 -83 37 0 17
11 19 133 21 121 3 132 2 135 -15 2 -10 2 -21 -1 -23z"/>
<path d="M473 1255 l-28 -24 68 -1 c37 0 103 -7 145 -16 42 -9 84 -18 92 -18
9 -1 20 -5 26 -8 20 -13 35 8 28 36 -5 21 -9 24 -15 14 -6 -10 -9 -10 -9 0 0
6 -7 12 -16 12 -11 0 -14 -6 -10 -22 6 -22 6 -22 -5 -2 -8 15 -30 25 -82 37
-105 25 -160 23 -194 -8z"/>
<path d="M1115 1262 c-44 -10 -86 -21 -92 -25 -8 -5 -13 -3 -13 5 -1 7 -10 -3
-21 -22 -11 -19 -17 -26 -13 -15 19 57 18 61 -9 32 -63 -66 -29 -71 161 -25
111 27 137 30 162 21 36 -13 38 -4 7 25 -28 26 -68 27 -182 4z"/>
<path d="M553 1173 c-12 -2 -27 -10 -33 -18 -9 -11 -7 -13 12 -9 l23 5 -22
-17 c-32 -23 -29 -31 15 -43 44 -13 192 -15 192 -3 0 5 -9 17 -19 26 -11 10
-17 24 -15 31 9 22 -90 40 -153 28z m107 -53 c0 -5 -2 -10 -4 -10 -3 0 -8 5
-11 10 -3 6 -1 10 4 10 6 0 11 -4 11 -10z m54 -22 c-10 -16 -34 -7 -34 12 0
17 3 19 19 8 11 -7 17 -16 15 -20z m-124 6 c0 -11 -5 -14 -16 -10 -9 3 -20 6
-25 6 -6 0 -7 5 -4 10 10 16 45 12 45 -6z"/>
<path d="M1058 1163 c-10 -2 -18 -8 -18 -13 0 -5 8 -7 18 -3 9 3 14 3 10 -1
-4 -5 -3 -19 2 -32 10 -25 4 -29 -24 -18 -15 6 -15 8 1 20 10 7 13 14 7 14
-17 0 -47 -37 -35 -44 6 -4 48 -8 93 -9 61 -1 91 3 113 15 l29 16 -34 21 c-36
22 -35 29 2 10 11 -6 22 -8 25 -6 3 3 -9 13 -26 21 -28 15 -121 20 -163 9z
m92 -43 c0 -5 -4 -10 -10 -10 -5 0 -10 5 -10 10 0 6 5 10 10 10 6 0 10 -4 10
-10z m51 -10 c5 0 9 -4 9 -10 0 -5 -11 -10 -25 -10 -16 0 -25 6 -25 16 0 11 5
14 16 10 9 -3 20 -6 25 -6z"/>
<path d="M1365 1030 c3 -5 11 -10 16 -10 6 0 7 5 4 10 -3 6 -11 10 -16 10 -6
0 -7 -4 -4 -10z"/>
<path d="M399 983 c-13 -16 -12 -17 4 -4 9 7 17 15 17 17 0 8 -8 3 -21 -13z"/>
<path d="M1360 996 c0 -2 8 -10 18 -17 15 -13 16 -12 3 4 -13 16 -21 21 -21
13z"/>
<path d="M1340 941 c0 -6 4 -13 10 -16 6 -3 7 1 4 9 -7 18 -14 21 -14 7z"/>
<path d="M790 917 c0 -7 -13 -26 -30 -42 -16 -16 -30 -38 -30 -50 0 -25 34
-60 49 -51 18 11 51 -12 44 -31 -4 -11 -3 -14 5 -9 7 4 10 17 8 29 -3 20 1 22
35 22 22 0 39 -3 39 -7 0 -5 6 -8 13 -8 7 0 20 -12 30 -27 17 -25 18 -26 14
-5 -4 16 1 26 16 34 47 24 50 68 7 108 -16 15 -30 33 -30 39 0 6 -4 11 -10 11
-19 0 -10 -22 20 -50 35 -33 40 -74 11 -90 -14 -7 -20 -7 -23 1 -2 6 -16 11
-31 9 -35 -2 -77 -3 -102 -1 -11 1 -31 0 -45 -1 -39 -5 -40 40 0 75 29 26 40
57 20 57 -5 0 -10 -6 -10 -13z"/>
<path d="M427 893 c-4 -3 -7 -11 -7 -17 0 -6 5 -5 12 2 6 6 9 14 7 17 -3 3 -9
2 -12 -2z"/>
<path d="M467 853 c-4 -3 -7 -11 -7 -17 0 -6 5 -5 12 2 6 6 9 14 7 17 -3 3 -9
2 -12 -2z"/>
<path d="M427 843 c-4 -3 -7 -11 -7 -17 0 -6 5 -5 12 2 6 6 9 14 7 17 -3 3 -9
2 -12 -2z"/>
<path d="M1310 841 c0 -5 5 -13 10 -16 6 -3 10 -2 10 4 0 5 -4 13 -10 16 -5 3
-10 2 -10 -4z"/>
<path d="M467 803 c-4 -3 -7 -11 -7 -17 0 -6 5 -5 12 2 6 6 9 14 7 17 -3 3 -9
2 -12 -2z"/>
<path d="M1300 801 c0 -5 5 -13 10 -16 6 -3 10 -2 10 4 0 5 -4 13 -10 16 -5 3
-10 2 -10 -4z"/>
<path d="M456 743 c-6 -14 -5 -15 5 -6 7 7 10 15 7 18 -3 3 -9 -2 -12 -12z"/>
<path d="M796 744 c-10 -25 1 -29 14 -5 6 12 7 21 1 21 -5 0 -12 -7 -15 -16z"/>
<path d="M890 751 c0 -6 4 -13 10 -16 6 -3 7 1 4 9 -7 18 -14 21 -14 7z"/>
<path d="M916 745 c4 -8 11 -15 16 -15 6 0 5 6 -2 15 -7 8 -14 15 -16 15 -2 0
-1 -7 2 -15z"/>
<path d="M980 754 c0 -6 7 -19 15 -30 8 -10 14 -14 14 -9 0 6 -6 19 -14 29 -8
11 -15 15 -15 10z"/>
<path d="M1300 756 c0 -2 7 -9 15 -16 13 -11 14 -10 9 4 -5 14 -24 23 -24 12z"/>
<path d="M496 735 c-11 -8 -15 -15 -9 -15 6 0 16 7 23 15 16 19 11 19 -14 0z"/>
<path d="M750 740 c0 -5 5 -10 10 -10 6 0 10 5 10 10 0 6 -4 10 -10 10 -5 0
-10 -4 -10 -10z"/>
<path d="M1272 734 c10 -10 20 -16 22 -13 3 3 -5 11 -17 18 -21 13 -21 12 -5
-5z"/>
<path d="M1210 712 c0 -5 7 -15 15 -22 8 -7 15 -8 15 -2 0 5 -7 15 -15 22 -8
7 -15 8 -15 2z"/>
<path d="M485 690 c-3 -5 -2 -10 4 -10 5 0 13 5 16 10 3 6 2 10 -4 10 -5 0
-13 -4 -16 -10z"/>
<path d="M681 682 c-7 -12 -16 -20 -21 -17 -5 3 -11 2 -14 -3 -2 -4 4 -9 15
-9 10 -1 19 2 19 8 0 5 6 9 14 9 8 0 18 5 22 12 4 6 3 8 -4 4 -5 -3 -12 0 -14
6 -3 8 -9 4 -17 -10z"/>
<path d="M1060 691 c0 -5 5 -13 10 -16 6 -3 10 -2 10 4 0 5 -4 13 -10 16 -5 3
-10 2 -10 -4z"/>
<path d="M1275 690 c3 -5 11 -10 16 -10 6 0 7 5 4 10 -3 6 -11 10 -16 10 -6 0
-7 -4 -4 -10z"/>
<path d="M761 660 c-24 -17 -53 -30 -63 -30 -11 0 -18 -5 -16 -12 7 -20 117
-48 188 -48 64 0 210 35 210 51 0 4 -26 20 -57 35 -45 21 -76 28 -138 30 -75
3 -83 1 -124 -26z m215 -1 c5 -9 -20 -11 -144 -14 -53 -1 -61 1 -47 11 20 15
182 17 191 3z m14 -36 l45 -6 -40 -13 c-52 -16 -193 -17 -236 -2 l-34 13 35 5
c50 8 177 9 230 3z"/>
<path d="M1195 680 c3 -5 11 -10 16 -10 6 0 7 5 4 10 -3 6 -11 10 -16 10 -6 0
-7 -4 -4 -10z"/>
<path d="M490 655 c-7 -8 -8 -15 -2 -15 5 0 15 7 22 15 7 8 8 15 2 15 -5 0
-15 -7 -22 -15z"/>
<path d="M1272 654 c10 -10 20 -15 24 -12 3 4 -5 12 -18 18 -22 12 -22 12 -6
-6z"/>
<path d="M530 645 c-7 -9 -8 -15 -2 -15 5 0 12 7 16 15 3 8 4 15 2 15 -2 0 -9
-7 -16 -15z"/>
<path d="M1190 651 c0 -5 7 -15 17 -22 15 -13 15 -12 4 9 -12 23 -21 28 -21
13z"/>
<path d="M1236 647 c3 -10 9 -15 12 -12 3 3 0 11 -7 18 -10 9 -11 8 -5 -6z"/>
<path d="M566 634 c-5 -14 -4 -15 9 -4 17 14 19 20 6 20 -5 0 -12 -7 -15 -16z"/>
<path d="M1101 645 c0 -5 6 -19 14 -29 8 -11 15 -15 15 -10 0 6 -7 19 -15 30
-8 10 -14 15 -14 9z"/>
<path d="M605 620 c-4 -12 -5 -24 -2 -27 3 -2 8 5 12 17 4 12 5 24 2 27 -3 2
-8 -5 -12 -17z"/>
<path d="M1160 630 c0 -8 5 -22 10 -30 9 -13 10 -13 10 0 0 8 -5 22 -10 30 -9
13 -10 13 -10 0z"/>
<path d="M496 615 c-3 -8 -1 -15 4 -15 6 0 10 7 10 15 0 8 -2 15 -4 15 -2 0
-6 -7 -10 -15z"/>
<path d="M646 615 c-3 -8 -1 -15 3 -15 5 0 11 7 15 15 3 8 1 15 -3 15 -5 0
-11 -7 -15 -15z"/>
<path d="M1270 615 c0 -8 4 -15 10 -15 5 0 7 7 4 15 -4 8 -8 15 -10 15 -2 0
-4 -7 -4 -15z"/>
<path d="M530 600 c-6 -11 -8 -20 -6 -20 3 0 10 9 16 20 6 11 8 20 6 20 -3 0
-10 -9 -16 -20z"/>
<path d="M1240 600 c6 -11 13 -20 16 -20 2 0 0 9 -6 20 -6 11 -13 20 -16 20
-2 0 0 -9 6 -20z"/>
<path d="M571 583 c-10 -26 -10 -27 4 -9 8 11 15 23 15 28 0 15 -7 8 -19 -19z"/>
<path d="M1190 604 c0 -6 7 -19 16 -30 14 -18 14 -18 3 6 -14 31 -19 36 -19
24z"/>
<path d="M627 583 c-4 -3 -7 -13 -7 -22 1 -13 3 -13 11 2 11 19 8 33 -4 20z"/>
<path d="M1140 583 c0 -4 5 -15 10 -23 8 -13 10 -13 10 2 0 9 -4 20 -10 23 -5
3 -10 3 -10 -2z"/>
<path d="M651 573 c0 -6 -4 -20 -7 -30 -5 -14 -4 -15 5 -7 7 7 11 20 8 30 -3
11 -5 14 -6 7z"/>
<path d="M1075 560 c3 -5 11 -10 16 -10 6 0 7 5 4 10 -3 6 -11 10 -16 10 -6 0
-7 -4 -4 -10z"/>
<path d="M1120 558 c0 -9 5 -20 10 -23 13 -8 13 5 0 25 -8 13 -10 13 -10 -2z"/>
<path d="M587 553 c-4 -3 -7 -11 -7 -17 0 -6 5 -5 12 2 6 6 9 14 7 17 -3 3 -9
2 -12 -2z"/>
<path d="M1180 551 c0 -6 4 -13 10 -16 6 -3 7 1 4 9 -7 18 -14 21 -14 7z"/>
<path d="M840 540 c0 -5 14 -7 33 -3 45 8 47 13 4 13 -20 0 -37 -4 -37 -10z"/>
<path d="M1050 546 c0 -2 8 -10 18 -17 15 -13 16 -12 3 4 -13 16 -21 21 -21
13z"/>
<path d="M666 525 c-9 -26 -7 -32 5 -12 6 10 9 21 6 23 -2 3 -7 -2 -11 -11z"/>
<path d="M699 523 c-13 -16 -12 -17 4 -4 16 13 21 21 13 21 -2 0 -10 -8 -17
-17z"/>
<path d="M727 523 c-4 -3 -7 -11 -7 -17 0 -6 5 -5 12 2 6 6 9 14 7 17 -3 3 -9
2 -12 -2z"/>
<path d="M871 520 c0 -8 4 -24 9 -35 l9 -20 0 20 c0 11 -4 27 -9 35 -9 13 -10
13 -9 0z"/>
<path d="M1106 517 c3 -10 9 -15 12 -12 3 3 0 11 -7 18 -10 9 -11 8 -5 -6z"/>
<path d="M1040 513 c0 -4 5 -15 10 -23 8 -13 10 -13 10 2 0 9 -4 20 -10 23 -5
3 -10 3 -10 -2z"/>
<path d="M1020 505 c0 -5 5 -17 10 -25 5 -8 10 -10 10 -5 0 6 -5 17 -10 25 -5
8 -10 11 -10 5z"/>
<path d="M686 483 c-6 -14 -5 -15 5 -6 7 7 10 15 7 18 -3 3 -9 -2 -12 -12z"/>
<path d="M760 491 c0 -5 -3 -17 -7 -27 -4 -11 -3 -15 4 -11 14 9 24 47 12 47
-5 0 -9 -4 -9 -9z"/>
<path d="M797 493 c-4 -3 -7 -11 -7 -17 0 -6 5 -5 12 2 6 6 9 14 7 17 -3 3 -9
2 -12 -2z"/>
<path d="M832 475 c0 -16 2 -22 5 -12 2 9 2 23 0 30 -3 6 -5 -1 -5 -18z"/>
<path d="M907 480 c3 -11 10 -23 16 -27 7 -4 8 0 4 11 -4 10 -7 22 -7 27 0 5
-4 9 -9 9 -5 0 -7 -9 -4 -20z"/>
<path d="M970 492 c0 -12 29 -48 30 -37 0 6 5 3 10 -5 9 -13 10 -13 10 0 0 8
-4 20 -8 26 -9 13 -42 26 -42 16z"/>
<path d="M1080 491 c0 -6 4 -13 10 -16 6 -3 7 1 4 9 -7 18 -14 21 -14 7z"/>
<path d="M720 470 c-6 -11 -8 -20 -6 -20 3 0 10 9 16 20 6 11 8 20 6 20 -3 0
-10 -9 -16 -20z"/>
<path d="M851 483 c0 -5 4 -17 9 -28 8 -18 9 -17 9 8 1 15 -3 27 -9 27 -5 0
-10 -3 -9 -7z"/>
<path d="M950 469 c0 -9 7 -22 15 -29 19 -16 19 0 0 26 -12 16 -14 16 -15 3z"/>
<path d="M786 445 c-3 -9 -6 -22 -5 -28 0 -7 5 -1 10 12 5 13 8 26 5 28 -2 2
-6 -3 -10 -12z"/>
<path d="M890 448 c0 -7 5 -20 10 -28 8 -12 10 -11 10 7 0 12 -4 25 -10 28 -5
3 -10 0 -10 -7z"/>
<path d="M871 404 c0 -11 3 -14 6 -6 3 7 2 16 -1 19 -3 4 -6 -2 -5 -13z"/>
<path d="M1135 205 c-8 -20 -20 -54 -26 -76 -9 -27 -18 -39 -31 -39 -15 0 -18
-8 -18 -45 l0 -45 130 0 130 0 0 44 c0 33 -4 45 -16 48 -10 2 -27 31 -43 73
l-27 70 -42 3 c-39 3 -42 1 -57 -33z m106 -66 c13 -39 30 -74 37 -76 6 -3 12
-14 12 -24 0 -16 -8 -19 -46 -19 -46 0 -46 0 -40 30 5 25 2 30 -14 30 -11 0
-20 -4 -20 -10 0 -5 5 -10 10 -10 6 0 10 -9 10 -20 0 -17 -7 -20 -50 -20 -43
0 -50 3 -50 20 0 11 6 20 13 20 8 0 20 19 26 43 26 86 39 107 64 107 21 0 27
-9 48 -71z"/>
<path d="M1185 120 c-3 -5 -1 -10 4 -10 6 0 11 5 11 10 0 6 -2 10 -4 10 -3 0
-8 -4 -11 -10z"/>
<path d="M370 67 c0 -15 31 -67 40 -67 6 0 10 4 10 9 0 12 -49 69 -50 58z"/>
<path d="M1404 58 c-4 -7 -14 -23 -22 -35 -12 -20 -12 -23 0 -23 17 0 52 57
39 64 -5 4 -13 1 -17 -6z"/>
</g>
</svg>
